<svg xmlns="http://www.w3.org/2000/svg" width="39.837" height="39.173" viewBox="0 0 39.837 39.173">
  <g id="Group_32" data-name="Group 32" transform="translate(-168 -334)">
    <g id="Path_24" data-name="Path 24" transform="translate(197.214 361.886)" fill="#432010">
      <path d="M 2.987805128097534 5.47561502456665 C 1.61602509021759 5.47561502456665 0.5000051259994507 4.359585285186768 0.5000051259994507 2.987805128097534 C 0.5000051259994507 1.61602509021759 1.61602509021759 0.5000051259994507 2.987805128097534 0.5000051259994507 C 4.359585285186768 0.5000051259994507 5.47561502456665 1.61602509021759 5.47561502456665 2.987805128097534 C 5.47561502456665 4.359585285186768 4.359585285186768 5.47561502456665 2.987805128097534 5.47561502456665 Z" stroke="none"/>
      <path d="M 2.987805128097534 0.999995231628418 C 1.891725063323975 0.999995231628418 0.999995231628418 1.891725063323975 0.999995231628418 2.987805128097534 C 0.999995231628418 4.083885192871094 1.891725063323975 4.975605010986328 2.987805128097534 4.975605010986328 C 4.083885192871094 4.975605010986328 4.975605010986328 4.083885192871094 4.975605010986328 2.987805128097534 C 4.975605010986328 1.891725063323975 4.083885192871094 0.999995231628418 2.987805128097534 0.999995231628418 M 2.987805128097534 -4.76837158203125e-06 C 4.637925148010254 -4.76837158203125e-06 5.975605010986328 1.337685108184814 5.975605010986328 2.987805128097534 C 5.975605010986328 4.637925148010254 4.637925148010254 5.975605010986328 2.987805128097534 5.975605010986328 C 1.337685108184814 5.975605010986328 -4.76837158203125e-06 4.637925148010254 -4.76837158203125e-06 2.987805128097534 C -4.76837158203125e-06 1.337685108184814 1.337685108184814 -4.76837158203125e-06 2.987805128097534 -4.76837158203125e-06 Z" stroke="none" fill="#432010"/>
    </g>
    <g id="Path_25" data-name="Path 25" transform="translate(197.214 361.886)" fill="#432010">
      <path d="M 2.987805128097534 5.47561502456665 C 1.61602509021759 5.47561502456665 0.5000051259994507 4.359585285186768 0.5000051259994507 2.987805128097534 C 0.5000051259994507 1.61602509021759 1.61602509021759 0.5000051259994507 2.987805128097534 0.5000051259994507 C 4.359585285186768 0.5000051259994507 5.47561502456665 1.61602509021759 5.47561502456665 2.987805128097534 C 5.47561502456665 4.359585285186768 4.359585285186768 5.47561502456665 2.987805128097534 5.47561502456665 Z" stroke="none"/>
      <path d="M 2.987805128097534 0.999995231628418 C 1.891725063323975 0.999995231628418 0.999995231628418 1.891725063323975 0.999995231628418 2.987805128097534 C 0.999995231628418 4.083885192871094 1.891725063323975 4.975605010986328 2.987805128097534 4.975605010986328 C 4.083885192871094 4.975605010986328 4.975605010986328 4.083885192871094 4.975605010986328 2.987805128097534 C 4.975605010986328 1.891725063323975 4.083885192871094 0.999995231628418 2.987805128097534 0.999995231628418 M 2.987805128097534 -4.76837158203125e-06 C 4.637925148010254 -4.76837158203125e-06 5.975605010986328 1.337685108184814 5.975605010986328 2.987805128097534 C 5.975605010986328 4.637925148010254 4.637925148010254 5.975605010986328 2.987805128097534 5.975605010986328 C 1.337685108184814 5.975605010986328 -4.76837158203125e-06 4.637925148010254 -4.76837158203125e-06 2.987805128097534 C -4.76837158203125e-06 1.337685108184814 1.337685108184814 -4.76837158203125e-06 2.987805128097534 -4.76837158203125e-06 Z" stroke="none" fill="#432010"/>
    </g>
    <g id="Path_28" data-name="Path 28" transform="translate(200.534 355.247)" fill="#432010">
      <path d="M 2.987805128097534 5.47561502456665 C 1.61602509021759 5.47561502456665 0.5000051259994507 4.359585285186768 0.5000051259994507 2.987805128097534 C 0.5000051259994507 1.61602509021759 1.61602509021759 0.5000051259994507 2.987805128097534 0.5000051259994507 C 4.359585285186768 0.5000051259994507 5.47561502456665 1.61602509021759 5.47561502456665 2.987805128097534 C 5.47561502456665 4.359585285186768 4.359585285186768 5.47561502456665 2.987805128097534 5.47561502456665 Z" stroke="none"/>
      <path d="M 2.987805128097534 0.999995231628418 C 1.891725063323975 0.999995231628418 0.999995231628418 1.891725063323975 0.999995231628418 2.987805128097534 C 0.999995231628418 4.083885192871094 1.891725063323975 4.975605010986328 2.987805128097534 4.975605010986328 C 4.083885192871094 4.975605010986328 4.975605010986328 4.083885192871094 4.975605010986328 2.987805128097534 C 4.975605010986328 1.891725063323975 4.083885192871094 0.999995231628418 2.987805128097534 0.999995231628418 M 2.987805128097534 -4.76837158203125e-06 C 4.637925148010254 -4.76837158203125e-06 5.975605010986328 1.337685108184814 5.975605010986328 2.987805128097534 C 5.975605010986328 4.637925148010254 4.637925148010254 5.975605010986328 2.987805128097534 5.975605010986328 C 1.337685108184814 5.975605010986328 -4.76837158203125e-06 4.637925148010254 -4.76837158203125e-06 2.987805128097534 C -4.76837158203125e-06 1.337685108184814 1.337685108184814 -4.76837158203125e-06 2.987805128097534 -4.76837158203125e-06 Z" stroke="none" fill="#432010"/>
    </g>
    <g id="Path_29" data-name="Path 29" transform="translate(201.862 348.607)" fill="#432010">
      <path d="M 2.987805128097534 5.47561502456665 C 1.61602509021759 5.47561502456665 0.5000051259994507 4.359585285186768 0.5000051259994507 2.987805128097534 C 0.5000051259994507 1.61602509021759 1.61602509021759 0.5000051259994507 2.987805128097534 0.5000051259994507 C 4.359585285186768 0.5000051259994507 5.47561502456665 1.61602509021759 5.47561502456665 2.987805128097534 C 5.47561502456665 4.359585285186768 4.359585285186768 5.47561502456665 2.987805128097534 5.47561502456665 Z" stroke="none"/>
      <path d="M 2.987805128097534 0.999995231628418 C 1.891725063323975 0.999995231628418 0.999995231628418 1.891725063323975 0.999995231628418 2.987805128097534 C 0.999995231628418 4.083885192871094 1.891725063323975 4.975605010986328 2.987805128097534 4.975605010986328 C 4.083885192871094 4.975605010986328 4.975605010986328 4.083885192871094 4.975605010986328 2.987805128097534 C 4.975605010986328 1.891725063323975 4.083885192871094 0.999995231628418 2.987805128097534 0.999995231628418 M 2.987805128097534 -4.76837158203125e-06 C 4.637925148010254 -4.76837158203125e-06 5.975605010986328 1.337685108184814 5.975605010986328 2.987805128097534 C 5.975605010986328 4.637925148010254 4.637925148010254 5.975605010986328 2.987805128097534 5.975605010986328 C 1.337685108184814 5.975605010986328 -4.76837158203125e-06 4.637925148010254 -4.76837158203125e-06 2.987805128097534 C -4.76837158203125e-06 1.337685108184814 1.337685108184814 -4.76837158203125e-06 2.987805128097534 -4.76837158203125e-06 Z" stroke="none" fill="#432010"/>
    </g>
    <g id="Path_27" data-name="Path 27" transform="translate(199.87 341.967)" fill="#432010">
      <path d="M 2.987805128097534 5.47561502456665 C 1.61602509021759 5.47561502456665 0.5000051259994507 4.359585285186768 0.5000051259994507 2.987805128097534 C 0.5000051259994507 1.61602509021759 1.61602509021759 0.5000051259994507 2.987805128097534 0.5000051259994507 C 4.359585285186768 0.5000051259994507 5.47561502456665 1.61602509021759 5.47561502456665 2.987805128097534 C 5.47561502456665 4.359585285186768 4.359585285186768 5.47561502456665 2.987805128097534 5.47561502456665 Z" stroke="none"/>
      <path d="M 2.987805128097534 0.999995231628418 C 1.891725063323975 0.999995231628418 0.999995231628418 1.891725063323975 0.999995231628418 2.987805128097534 C 0.999995231628418 4.083885192871094 1.891725063323975 4.975605010986328 2.987805128097534 4.975605010986328 C 4.083885192871094 4.975605010986328 4.975605010986328 4.083885192871094 4.975605010986328 2.987805128097534 C 4.975605010986328 1.891725063323975 4.083885192871094 0.999995231628418 2.987805128097534 0.999995231628418 M 2.987805128097534 -4.76837158203125e-06 C 4.637925148010254 -4.76837158203125e-06 5.975605010986328 1.337685108184814 5.975605010986328 2.987805128097534 C 5.975605010986328 4.637925148010254 4.637925148010254 5.975605010986328 2.987805128097534 5.975605010986328 C 1.337685108184814 5.975605010986328 -4.76837158203125e-06 4.637925148010254 -4.76837158203125e-06 2.987805128097534 C -4.76837158203125e-06 1.337685108184814 1.337685108184814 -4.76837158203125e-06 2.987805128097534 -4.76837158203125e-06 Z" stroke="none" fill="#432010"/>
    </g>
    <g id="Path_22" data-name="Path 22" transform="translate(195.222 336.656)" fill="#432010">
      <path d="M 2.987805128097534 5.47561502456665 C 1.61602509021759 5.47561502456665 0.5000051259994507 4.359585285186768 0.5000051259994507 2.987805128097534 C 0.5000051259994507 1.61602509021759 1.61602509021759 0.5000051259994507 2.987805128097534 0.5000051259994507 C 4.359585285186768 0.5000051259994507 5.47561502456665 1.61602509021759 5.47561502456665 2.987805128097534 C 5.47561502456665 4.359585285186768 4.359585285186768 5.47561502456665 2.987805128097534 5.47561502456665 Z" stroke="none"/>
      <path d="M 2.987805128097534 0.999995231628418 C 1.891725063323975 0.999995231628418 0.999995231628418 1.891725063323975 0.999995231628418 2.987805128097534 C 0.999995231628418 4.083885192871094 1.891725063323975 4.975605010986328 2.987805128097534 4.975605010986328 C 4.083885192871094 4.975605010986328 4.975605010986328 4.083885192871094 4.975605010986328 2.987805128097534 C 4.975605010986328 1.891725063323975 4.083885192871094 0.999995231628418 2.987805128097534 0.999995231628418 M 2.987805128097534 -4.76837158203125e-06 C 4.637925148010254 -4.76837158203125e-06 5.975605010986328 1.337685108184814 5.975605010986328 2.987805128097534 C 5.975605010986328 4.637925148010254 4.637925148010254 5.975605010986328 2.987805128097534 5.975605010986328 C 1.337685108184814 5.975605010986328 -4.76837158203125e-06 4.637925148010254 -4.76837158203125e-06 2.987805128097534 C -4.76837158203125e-06 1.337685108184814 1.337685108184814 -4.76837158203125e-06 2.987805128097534 -4.76837158203125e-06 Z" stroke="none" fill="#432010"/>
    </g>
    <g id="Path_20" data-name="Path 20" transform="translate(188.583 334)" fill="#432010">
      <path d="M 2.987805128097534 5.47561502456665 C 1.61602509021759 5.47561502456665 0.5000051259994507 4.359585285186768 0.5000051259994507 2.987805128097534 C 0.5000051259994507 1.61602509021759 1.61602509021759 0.5000051259994507 2.987805128097534 0.5000051259994507 C 4.359585285186768 0.5000051259994507 5.47561502456665 1.61602509021759 5.47561502456665 2.987805128097534 C 5.47561502456665 4.359585285186768 4.359585285186768 5.47561502456665 2.987805128097534 5.47561502456665 Z" stroke="none"/>
      <path d="M 2.987805128097534 0.999995231628418 C 1.891725063323975 0.999995231628418 0.999995231628418 1.891725063323975 0.999995231628418 2.987805128097534 C 0.999995231628418 4.083885192871094 1.891725063323975 4.975605010986328 2.987805128097534 4.975605010986328 C 4.083885192871094 4.975605010986328 4.975605010986328 4.083885192871094 4.975605010986328 2.987805128097534 C 4.975605010986328 1.891725063323975 4.083885192871094 0.999995231628418 2.987805128097534 0.999995231628418 M 2.987805128097534 -4.76837158203125e-06 C 4.637925148010254 -4.76837158203125e-06 5.975605010986328 1.337685108184814 5.975605010986328 2.987805128097534 C 5.975605010986328 4.637925148010254 4.637925148010254 5.975605010986328 2.987805128097534 5.975605010986328 C 1.337685108184814 5.975605010986328 -4.76837158203125e-06 4.637925148010254 -4.76837158203125e-06 2.987805128097534 C -4.76837158203125e-06 1.337685108184814 1.337685108184814 -4.76837158203125e-06 2.987805128097534 -4.76837158203125e-06 Z" stroke="none" fill="#432010"/>
    </g>
    <g id="Path_19" data-name="Path 19" transform="translate(181.943 334)" fill="#432010">
      <path d="M 2.987805128097534 5.47561502456665 C 1.61602509021759 5.47561502456665 0.5000051259994507 4.359585285186768 0.5000051259994507 2.987805128097534 C 0.5000051259994507 1.61602509021759 1.61602509021759 0.5000051259994507 2.987805128097534 0.5000051259994507 C 4.359585285186768 0.5000051259994507 5.47561502456665 1.61602509021759 5.47561502456665 2.987805128097534 C 5.47561502456665 4.359585285186768 4.359585285186768 5.47561502456665 2.987805128097534 5.47561502456665 Z" stroke="none"/>
      <path d="M 2.987805128097534 0.999995231628418 C 1.891725063323975 0.999995231628418 0.999995231628418 1.891725063323975 0.999995231628418 2.987805128097534 C 0.999995231628418 4.083885192871094 1.891725063323975 4.975605010986328 2.987805128097534 4.975605010986328 C 4.083885192871094 4.975605010986328 4.975605010986328 4.083885192871094 4.975605010986328 2.987805128097534 C 4.975605010986328 1.891725063323975 4.083885192871094 0.999995231628418 2.987805128097534 0.999995231628418 M 2.987805128097534 -4.76837158203125e-06 C 4.637925148010254 -4.76837158203125e-06 5.975605010986328 1.337685108184814 5.975605010986328 2.987805128097534 C 5.975605010986328 4.637925148010254 4.637925148010254 5.975605010986328 2.987805128097534 5.975605010986328 C 1.337685108184814 5.975605010986328 -4.76837158203125e-06 4.637925148010254 -4.76837158203125e-06 2.987805128097534 C -4.76837158203125e-06 1.337685108184814 1.337685108184814 -4.76837158203125e-06 2.987805128097534 -4.76837158203125e-06 Z" stroke="none" fill="#432010"/>
    </g>
    <g id="Path_17" data-name="Path 17" transform="translate(175.304 337.32)" fill="#432010">
      <path d="M 2.987805128097534 5.47561502456665 C 1.61602509021759 5.47561502456665 0.5000051259994507 4.359585285186768 0.5000051259994507 2.987805128097534 C 0.5000051259994507 1.61602509021759 1.61602509021759 0.5000051259994507 2.987805128097534 0.5000051259994507 C 4.359585285186768 0.5000051259994507 5.47561502456665 1.61602509021759 5.47561502456665 2.987805128097534 C 5.47561502456665 4.359585285186768 4.359585285186768 5.47561502456665 2.987805128097534 5.47561502456665 Z" stroke="none"/>
      <path d="M 2.987805128097534 0.999995231628418 C 1.891725063323975 0.999995231628418 0.999995231628418 1.891725063323975 0.999995231628418 2.987805128097534 C 0.999995231628418 4.083885192871094 1.891725063323975 4.975605010986328 2.987805128097534 4.975605010986328 C 4.083885192871094 4.975605010986328 4.975605010986328 4.083885192871094 4.975605010986328 2.987805128097534 C 4.975605010986328 1.891725063323975 4.083885192871094 0.999995231628418 2.987805128097534 0.999995231628418 M 2.987805128097534 -4.76837158203125e-06 C 4.637925148010254 -4.76837158203125e-06 5.975605010986328 1.337685108184814 5.975605010986328 2.987805128097534 C 5.975605010986328 4.637925148010254 4.637925148010254 5.975605010986328 2.987805128097534 5.975605010986328 C 1.337685108184814 5.975605010986328 -4.76837158203125e-06 4.637925148010254 -4.76837158203125e-06 2.987805128097534 C -4.76837158203125e-06 1.337685108184814 1.337685108184814 -4.76837158203125e-06 2.987805128097534 -4.76837158203125e-06 Z" stroke="none" fill="#432010"/>
    </g>
    <g id="Path_18" data-name="Path 18" transform="translate(170.656 342.631)" fill="none">
      <path d="M2.988,0A2.988,2.988,0,1,1,0,2.988,2.988,2.988,0,0,1,2.988,0Z" stroke="none"/>
      <path d="M 2.987805128097534 0.999995231628418 C 1.891725063323975 0.999995231628418 0.999995231628418 1.891725063323975 0.999995231628418 2.987805128097534 C 0.999995231628418 4.083885192871094 1.891725063323975 4.975605010986328 2.987805128097534 4.975605010986328 C 4.083885192871094 4.975605010986328 4.975605010986328 4.083885192871094 4.975605010986328 2.987805128097534 C 4.975605010986328 1.891725063323975 4.083885192871094 0.999995231628418 2.987805128097534 0.999995231628418 M 2.987805128097534 -4.76837158203125e-06 C 4.637925148010254 -4.76837158203125e-06 5.975605010986328 1.337685108184814 5.975605010986328 2.987805128097534 C 5.975605010986328 4.637925148010254 4.637925148010254 5.975605010986328 2.987805128097534 5.975605010986328 C 1.337685108184814 5.975605010986328 -4.76837158203125e-06 4.637925148010254 -4.76837158203125e-06 2.987805128097534 C -4.76837158203125e-06 1.337685108184814 1.337685108184814 -4.76837158203125e-06 2.987805128097534 -4.76837158203125e-06 Z" stroke="none" fill="#432010"/>
    </g>
    <g id="Path_21" data-name="Path 21" transform="translate(168 349.271)" fill="none">
      <path d="M2.988,0A2.988,2.988,0,1,1,0,2.988,2.988,2.988,0,0,1,2.988,0Z" stroke="none"/>
      <path d="M 2.987805128097534 0.999995231628418 C 1.891725063323975 0.999995231628418 0.999995231628418 1.891725063323975 0.999995231628418 2.987805128097534 C 0.999995231628418 4.083885192871094 1.891725063323975 4.975605010986328 2.987805128097534 4.975605010986328 C 4.083885192871094 4.975605010986328 4.975605010986328 4.083885192871094 4.975605010986328 2.987805128097534 C 4.975605010986328 1.891725063323975 4.083885192871094 0.999995231628418 2.987805128097534 0.999995231628418 M 2.987805128097534 -4.76837158203125e-06 C 4.637925148010254 -4.76837158203125e-06 5.975605010986328 1.337685108184814 5.975605010986328 2.987805128097534 C 5.975605010986328 4.637925148010254 4.637925148010254 5.975605010986328 2.987805128097534 5.975605010986328 C 1.337685108184814 5.975605010986328 -4.76837158203125e-06 4.637925148010254 -4.76837158203125e-06 2.987805128097534 C -4.76837158203125e-06 1.337685108184814 1.337685108184814 -4.76837158203125e-06 2.987805128097534 -4.76837158203125e-06 Z" stroke="none" fill="#432010"/>
    </g>
    <g id="Path_23" data-name="Path 23" transform="translate(168.664 355.911)" fill="none">
      <path d="M2.988,0A2.988,2.988,0,1,1,0,2.988,2.988,2.988,0,0,1,2.988,0Z" stroke="none"/>
      <path d="M 2.987805128097534 0.999995231628418 C 1.891725063323975 0.999995231628418 0.999995231628418 1.891725063323975 0.999995231628418 2.987805128097534 C 0.999995231628418 4.083885192871094 1.891725063323975 4.975605010986328 2.987805128097534 4.975605010986328 C 4.083885192871094 4.975605010986328 4.975605010986328 4.083885192871094 4.975605010986328 2.987805128097534 C 4.975605010986328 1.891725063323975 4.083885192871094 0.999995231628418 2.987805128097534 0.999995231628418 M 2.987805128097534 -4.76837158203125e-06 C 4.637925148010254 -4.76837158203125e-06 5.975605010986328 1.337685108184814 5.975605010986328 2.987805128097534 C 5.975605010986328 4.637925148010254 4.637925148010254 5.975605010986328 2.987805128097534 5.975605010986328 C 1.337685108184814 5.975605010986328 -4.76837158203125e-06 4.637925148010254 -4.76837158203125e-06 2.987805128097534 C -4.76837158203125e-06 1.337685108184814 1.337685108184814 -4.76837158203125e-06 2.987805128097534 -4.76837158203125e-06 Z" stroke="none" fill="#432010"/>
    </g>
    <g id="Path_26" data-name="Path 26" transform="translate(172.648 361.222)" fill="none">
      <path d="M2.988,0A2.988,2.988,0,1,1,0,2.988,2.988,2.988,0,0,1,2.988,0Z" stroke="none"/>
      <path d="M 2.987805128097534 0.999995231628418 C 1.891725063323975 0.999995231628418 0.999995231628418 1.891725063323975 0.999995231628418 2.987805128097534 C 0.999995231628418 4.083885192871094 1.891725063323975 4.975605010986328 2.987805128097534 4.975605010986328 C 4.083885192871094 4.975605010986328 4.975605010986328 4.083885192871094 4.975605010986328 2.987805128097534 C 4.975605010986328 1.891725063323975 4.083885192871094 0.999995231628418 2.987805128097534 0.999995231628418 M 2.987805128097534 -4.76837158203125e-06 C 4.637925148010254 -4.76837158203125e-06 5.975605010986328 1.337685108184814 5.975605010986328 2.987805128097534 C 5.975605010986328 4.637925148010254 4.637925148010254 5.975605010986328 2.987805128097534 5.975605010986328 C 1.337685108184814 5.975605010986328 -4.76837158203125e-06 4.637925148010254 -4.76837158203125e-06 2.987805128097534 C -4.76837158203125e-06 1.337685108184814 1.337685108184814 -4.76837158203125e-06 2.987805128097534 -4.76837158203125e-06 Z" stroke="none" fill="#432010"/>
    </g>
    <g id="Path_30" data-name="Path 30" transform="translate(177.959 365.206)" fill="#432010">
      <path d="M 2.987805128097534 5.47561502456665 C 1.61602509021759 5.47561502456665 0.5000051259994507 4.359585285186768 0.5000051259994507 2.987805128097534 C 0.5000051259994507 1.61602509021759 1.61602509021759 0.5000051259994507 2.987805128097534 0.5000051259994507 C 4.359585285186768 0.5000051259994507 5.47561502456665 1.61602509021759 5.47561502456665 2.987805128097534 C 5.47561502456665 4.359585285186768 4.359585285186768 5.47561502456665 2.987805128097534 5.47561502456665 Z" stroke="none"/>
      <path d="M 2.987805128097534 0.999995231628418 C 1.891725063323975 0.999995231628418 0.999995231628418 1.891725063323975 0.999995231628418 2.987805128097534 C 0.999995231628418 4.083885192871094 1.891725063323975 4.975605010986328 2.987805128097534 4.975605010986328 C 4.083885192871094 4.975605010986328 4.975605010986328 4.083885192871094 4.975605010986328 2.987805128097534 C 4.975605010986328 1.891725063323975 4.083885192871094 0.999995231628418 2.987805128097534 0.999995231628418 M 2.987805128097534 -4.76837158203125e-06 C 4.637925148010254 -4.76837158203125e-06 5.975605010986328 1.337685108184814 5.975605010986328 2.987805128097534 C 5.975605010986328 4.637925148010254 4.637925148010254 5.975605010986328 2.987805128097534 5.975605010986328 C 1.337685108184814 5.975605010986328 -4.76837158203125e-06 4.637925148010254 -4.76837158203125e-06 2.987805128097534 C -4.76837158203125e-06 1.337685108184814 1.337685108184814 -4.76837158203125e-06 2.987805128097534 -4.76837158203125e-06 Z" stroke="none" fill="#432010"/>
    </g>
    <g id="Path_32" data-name="Path 32" transform="translate(184.599 367.198)" fill="#432010">
      <path d="M 2.987805128097534 5.47561502456665 C 1.61602509021759 5.47561502456665 0.5000051259994507 4.359585285186768 0.5000051259994507 2.987805128097534 C 0.5000051259994507 1.61602509021759 1.61602509021759 0.5000051259994507 2.987805128097534 0.5000051259994507 C 4.359585285186768 0.5000051259994507 5.47561502456665 1.61602509021759 5.47561502456665 2.987805128097534 C 5.47561502456665 4.359585285186768 4.359585285186768 5.47561502456665 2.987805128097534 5.47561502456665 Z" stroke="none"/>
      <path d="M 2.987805128097534 0.999995231628418 C 1.891725063323975 0.999995231628418 0.999995231628418 1.891725063323975 0.999995231628418 2.987805128097534 C 0.999995231628418 4.083885192871094 1.891725063323975 4.975605010986328 2.987805128097534 4.975605010986328 C 4.083885192871094 4.975605010986328 4.975605010986328 4.083885192871094 4.975605010986328 2.987805128097534 C 4.975605010986328 1.891725063323975 4.083885192871094 0.999995231628418 2.987805128097534 0.999995231628418 M 2.987805128097534 -4.76837158203125e-06 C 4.637925148010254 -4.76837158203125e-06 5.975605010986328 1.337685108184814 5.975605010986328 2.987805128097534 C 5.975605010986328 4.637925148010254 4.637925148010254 5.975605010986328 2.987805128097534 5.975605010986328 C 1.337685108184814 5.975605010986328 -4.76837158203125e-06 4.637925148010254 -4.76837158203125e-06 2.987805128097534 C -4.76837158203125e-06 1.337685108184814 1.337685108184814 -4.76837158203125e-06 2.987805128097534 -4.76837158203125e-06 Z" stroke="none" fill="#432010"/>
    </g>
    <g id="Path_31" data-name="Path 31" transform="translate(191.902 365.87)" fill="#432010">
      <path d="M 2.987805128097534 5.47561502456665 C 1.61602509021759 5.47561502456665 0.5000051259994507 4.359585285186768 0.5000051259994507 2.987805128097534 C 0.5000051259994507 1.61602509021759 1.61602509021759 0.5000051259994507 2.987805128097534 0.5000051259994507 C 4.359585285186768 0.5000051259994507 5.47561502456665 1.61602509021759 5.47561502456665 2.987805128097534 C 5.47561502456665 4.359585285186768 4.359585285186768 5.47561502456665 2.987805128097534 5.47561502456665 Z" stroke="none"/>
      <path d="M 2.987805128097534 0.999995231628418 C 1.891725063323975 0.999995231628418 0.999995231628418 1.891725063323975 0.999995231628418 2.987805128097534 C 0.999995231628418 4.083885192871094 1.891725063323975 4.975605010986328 2.987805128097534 4.975605010986328 C 4.083885192871094 4.975605010986328 4.975605010986328 4.083885192871094 4.975605010986328 2.987805128097534 C 4.975605010986328 1.891725063323975 4.083885192871094 0.999995231628418 2.987805128097534 0.999995231628418 M 2.987805128097534 -4.76837158203125e-06 C 4.637925148010254 -4.76837158203125e-06 5.975605010986328 1.337685108184814 5.975605010986328 2.987805128097534 C 5.975605010986328 4.637925148010254 4.637925148010254 5.975605010986328 2.987805128097534 5.975605010986328 C 1.337685108184814 5.975605010986328 -4.76837158203125e-06 4.637925148010254 -4.76837158203125e-06 2.987805128097534 C -4.76837158203125e-06 1.337685108184814 1.337685108184814 -4.76837158203125e-06 2.987805128097534 -4.76837158203125e-06 Z" stroke="none" fill="#432010"/>
    </g>
  </g>
</svg>
